<svg id="Capa_1" enable-background="new 0 0 512 512" height="512" viewBox="0 0 512 512" width="512" xmlns="http://www.w3.org/2000/svg"><g><g id="Recycling_Bin"><g><g><path d="m376 512h-240c-7.71 0-14.164-5.845-14.927-13.517l-30-302c-.419-4.215.965-8.411 3.809-11.551 2.843-3.141 6.882-4.932 11.118-4.932h300c4.236 0 8.275 1.791 11.118 4.931 2.844 3.14 4.228 7.336 3.809 11.551l-30 302c-.763 7.673-7.217 13.518-14.927 13.518z" fill="#97de3d"/></g></g><path d="m406 180h-150v332h120c7.71 0 14.164-5.845 14.927-13.517l30-302c.419-4.215-.965-8.411-3.809-11.551-2.843-3.141-6.882-4.932-11.118-4.932z" fill="#59c36a"/><g><path d="m406 150h-300c-4.619 0-8.98-2.128-11.823-5.769s-3.85-8.388-2.729-12.869l30-120c1.669-6.677 7.669-11.362 14.552-11.362h240c6.883 0 12.883 4.685 14.552 11.362l30 120c1.121 4.481.114 9.229-2.729 12.869s-7.204 5.769-11.823 5.769z" fill="#97de3d"/></g><path d="m390.552 11.362c-1.669-6.677-7.669-11.362-14.552-11.362h-120v150h150c4.619 0 8.98-2.128 11.823-5.769s3.85-8.388 2.729-12.869z" fill="#59c36a"/><g><path d="m316 149.996h-120c-8.284 0-15-6.716-15-15v-60c0-8.284 6.716-15 15-15h120c8.284 0 15 6.716 15 15v60c0 8.285-6.716 15-15 15z" fill="#596c76"/></g><g><path d="m226.771 404h-48.714c-5.359 0-10.311-2.859-12.99-7.5s-2.68-10.359 0-15l24.357-42.188c4.142-7.174 13.316-9.633 20.49-5.49 7.175 4.142 9.633 13.316 5.49 20.49l-11.365 19.688h22.732c8.284 0 15 6.716 15 15s-6.715 15-15 15z" fill="#e6ffff"/></g><g><path d="m333.942 404h-48.714c-8.284 0-15-6.716-15-15s6.716-15 15-15h22.732l-11.366-19.687c-4.143-7.175-1.685-16.348 5.49-20.49 7.172-4.142 16.348-1.685 20.49 5.49l24.357 42.188c2.68 4.641 2.68 10.359 0 15s-7.629 7.499-12.989 7.499z" fill="#d9f2ff"/></g><g><path d="m280.371 311.19c-5.184 0-10.226-2.69-13.004-7.502l-11.367-19.688-11.367 19.688c-4.144 7.174-13.317 9.632-20.49 5.49-7.175-4.142-9.633-13.316-5.49-20.49l24.357-42.188c2.68-4.641 7.631-7.5 12.99-7.5s10.311 2.859 12.99 7.5l24.357 42.188c4.143 7.174 1.685 16.348-5.49 20.49-2.362 1.364-4.941 2.012-7.486 2.012z" fill="#e6ffff"/></g></g><g id="Recycling_Bin_1_"><path d="m316 59.996h-60v90h60c8.284 0 15-6.716 15-15v-60c0-8.284-6.716-15-15-15z" fill="#465a61"/><path d="m267.367 303.688c2.778 4.813 7.82 7.503 13.004 7.502 2.545 0 5.124-.648 7.486-2.012 7.175-4.142 9.633-13.316 5.49-20.49l-24.357-42.188c-2.68-4.641-7.631-7.5-12.99-7.5v45z" fill="#d9f2ff"/></g><g><path d="m436 210h-360c-8.284 0-15-6.716-15-15v-60c0-8.284 6.716-15 15-15h360c8.284 0 15 6.716 15 15v60c0 8.284-6.716 15-15 15z" fill="#59c36a"/></g><path d="m436 120h-180v90h180c8.284 0 15-6.716 15-15v-60c0-8.284-6.716-15-15-15z" fill="#00a66c"/></g></svg>